<?xml version="1.0" encoding="UTF-8"?>
<svg xmlns="http://www.w3.org/2000/svg"
     xmlns:xlink="http://www.w3.org/1999/xlink"
     xmlns:gadfly="http://www.gadflyjl.org/ns"
     version="1.2"
     width="304.8mm" height="203.2mm" viewBox="0 0 304.8 203.2"
     stroke="none"
     fill="#000000"
     stroke-width="0.3"
     font-size="3.88"
>
<defs>
  <marker id="arrow" markerWidth="15" markerHeight="7" refX="5" refY="3.5" orient="auto" markerUnits="strokeWidth">
    <path d="M0,0 L15,3.5 L0,7 z" stroke="context-stroke" fill="context-stroke"/>
  </marker>
</defs>
<g class="plotroot xscalable yscalable" id="img-9a76e7b6-1">
  <g font-size="3.88" font-family="'PT Sans','Helvetica Neue','Helvetica',sans-serif" fill="#564A55" stroke="#000000" stroke-opacity="0.000" id="img-9a76e7b6-2">
    <g transform="translate(146.46,192.38)">
      <g class="primitive">
        <text text-anchor="middle" dy="0.6em">Size</text>
      </g>
    </g>
  </g>
  <g class="guide xlabels" font-size="2.82" font-family="'PT Sans Caption','Helvetica Neue','Helvetica',sans-serif" fill="#6C606B" id="img-9a76e7b6-3">
    <g transform="translate(22.88,186.61)">
      <g class="primitive">
        <text text-anchor="middle" dy="0.6em">10</text>
      </g>
    </g>
    <g transform="translate(64.07,186.61)">
      <g class="primitive">
        <text text-anchor="middle" dy="0.6em">32</text>
      </g>
    </g>
    <g transform="translate(105.27,186.61)">
      <g class="primitive">
        <text text-anchor="middle" dy="0.6em">100</text>
      </g>
    </g>
    <g transform="translate(146.46,186.61)">
      <g class="primitive">
        <text text-anchor="middle" dy="0.6em">316</text>
      </g>
    </g>
    <g transform="translate(187.66,186.61)">
      <g class="primitive">
        <text text-anchor="middle" dy="0.6em">1000</text>
      </g>
    </g>
    <g transform="translate(228.85,186.61)">
      <g class="primitive">
        <text text-anchor="middle" dy="0.6em">3162</text>
      </g>
    </g>
    <g transform="translate(270.05,186.61)">
      <g class="primitive">
        <text text-anchor="middle" dy="0.6em">10000</text>
      </g>
    </g>
  </g>
  <g class="guide colorkey" id="img-9a76e7b6-4">
    <g fill="#4C404B" font-size="2.82" font-family="'PT Sans','Helvetica Neue','Helvetica',sans-serif" id="img-9a76e7b6-5">
      <g transform="translate(276.16,88.12)" id="img-9a76e7b6-6">
        <g class="primitive">
          <text dy="0.35em">BLIS</text>
        </g>
      </g>
      <g transform="translate(276.16,91.23)" id="img-9a76e7b6-7">
        <g class="primitive">
          <text dy="0.35em">Gaius</text>
        </g>
      </g>
      <g transform="translate(276.16,94.35)" id="img-9a76e7b6-8">
        <g class="primitive">
          <text dy="0.35em">MKL</text>
        </g>
      </g>
      <g transform="translate(276.16,97.47)" id="img-9a76e7b6-9">
        <g class="primitive">
          <text dy="0.35em">Octavian</text>
        </g>
      </g>
      <g transform="translate(276.16,100.58)" id="img-9a76e7b6-10">
        <g class="primitive">
          <text dy="0.35em">OpenBLAS</text>
        </g>
      </g>
      <g transform="translate(276.16,103.7)" id="img-9a76e7b6-11">
        <g class="primitive">
          <text dy="0.35em">Tullio</text>
        </g>
      </g>
      <g transform="translate(276.16,106.82)" id="img-9a76e7b6-12">
        <g class="primitive">
          <text dy="0.35em">LoopVectorization</text>
        </g>
      </g>
    </g>
    <g stroke-width="0.3" id="img-9a76e7b6-13">
      <g stroke="#FFFFFF" fill-opacity="1" fill="#A0FF35" id="img-9a76e7b6-14">
        <g transform="translate(273.61,106.82)" id="img-9a76e7b6-15">
          <circle cx="0" cy="0" r="0.9" class="primitive"/>
        </g>
      </g>
      <g stroke="#FFFFFF" fill-opacity="1" fill="#FF47EA" id="img-9a76e7b6-16">
        <g transform="translate(273.61,103.7)" id="img-9a76e7b6-17">
          <circle cx="0" cy="0" r="0.9" class="primitive"/>
        </g>
      </g>
      <g stroke="#FFFFFF" fill-opacity="1" fill="#008C00" id="img-9a76e7b6-18">
        <g transform="translate(273.61,100.58)" id="img-9a76e7b6-19">
          <circle cx="0" cy="0" r="0.9" class="primitive"/>
        </g>
      </g>
      <g stroke="#FFFFFF" fill-opacity="1" fill="#66023C" id="img-9a76e7b6-20">
        <g transform="translate(273.61,97.47)" id="img-9a76e7b6-21">
          <circle cx="0" cy="0" r="0.9" class="primitive"/>
        </g>
      </g>
      <g stroke="#FFFFFF" fill-opacity="1" fill="#0071C5" id="img-9a76e7b6-22">
        <g transform="translate(273.61,94.35)" id="img-9a76e7b6-23">
          <circle cx="0" cy="0" r="0.9" class="primitive"/>
        </g>
      </g>
      <g stroke="#FFFFFF" fill-opacity="1" fill="#00B5BA" id="img-9a76e7b6-24">
        <g transform="translate(273.61,91.23)" id="img-9a76e7b6-25">
          <circle cx="0" cy="0" r="0.9" class="primitive"/>
        </g>
      </g>
      <g stroke="#FFFFFF" fill-opacity="1" fill="#B46300" id="img-9a76e7b6-26">
        <g transform="translate(273.61,88.12)" id="img-9a76e7b6-27">
          <circle cx="0" cy="0" r="0.9" class="primitive"/>
        </g>
      </g>
    </g>
    <g fill="#362A35" font-size="3.88" font-family="'PT Sans','Helvetica Neue','Helvetica',sans-serif" stroke="#000000" stroke-opacity="0.000" id="img-9a76e7b6-28">
      <g transform="translate(273.05,85.06)" id="img-9a76e7b6-29">
        <g class="primitive">
          <text dy="-0em">Libraries</text>
        </g>
      </g>
    </g>
  </g>
  <g clip-path="url(#img-9a76e7b6-30)">
    <g id="img-9a76e7b6-31">
      <g pointer-events="visible" stroke-width="0.3" fill="#000000" fill-opacity="0.000" stroke="#000000" stroke-opacity="0.000" class="guide background" id="img-9a76e7b6-32">
        <g transform="translate(146.46,95.31)" id="img-9a76e7b6-33">
          <path d="M-125.58,-90.31 L125.58,-90.31 125.58,90.31 -125.58,90.31  z" class="primitive"/>
        </g>
      </g>
      <g class="guide ygridlines xfixed" stroke-dasharray="0.5,0.5" stroke-width="0.2" stroke="#D0D0E0" id="img-9a76e7b6-34">
        <g transform="translate(146.46,183.61)" id="img-9a76e7b6-35">
          <path fill="none" d="M-125.58,0 L125.58,0 " class="primitive"/>
        </g>
        <g transform="translate(146.46,148.29)" id="img-9a76e7b6-36">
          <path fill="none" d="M-125.58,0 L125.58,0 " class="primitive"/>
        </g>
        <g transform="translate(146.46,112.97)" id="img-9a76e7b6-37">
          <path fill="none" d="M-125.58,0 L125.58,0 " class="primitive"/>
        </g>
        <g transform="translate(146.46,77.65)" id="img-9a76e7b6-38">
          <path fill="none" d="M-125.58,0 L125.58,0 " class="primitive"/>
        </g>
        <g transform="translate(146.46,42.32)" id="img-9a76e7b6-39">
          <path fill="none" d="M-125.58,0 L125.58,0 " class="primitive"/>
        </g>
        <g transform="translate(146.46,7)" id="img-9a76e7b6-40">
          <path fill="none" d="M-125.58,0 L125.58,0 " class="primitive"/>
        </g>
      </g>
      <g class="guide xgridlines yfixed" stroke-dasharray="0.5,0.5" stroke-width="0.2" stroke="#D0D0E0" id="img-9a76e7b6-41">
        <g transform="translate(22.88,95.31)" id="img-9a76e7b6-42">
          <path fill="none" d="M0,-90.31 L0,90.31 " class="primitive"/>
        </g>
        <g transform="translate(64.07,95.31)" id="img-9a76e7b6-43">
          <path fill="none" d="M0,-90.31 L0,90.31 " class="primitive"/>
        </g>
        <g transform="translate(105.27,95.31)" id="img-9a76e7b6-44">
          <path fill="none" d="M0,-90.31 L0,90.31 " class="primitive"/>
        </g>
        <g transform="translate(146.46,95.31)" id="img-9a76e7b6-45">
          <path fill="none" d="M0,-90.31 L0,90.31 " class="primitive"/>
        </g>
        <g transform="translate(187.66,95.31)" id="img-9a76e7b6-46">
          <path fill="none" d="M0,-90.31 L0,90.31 " class="primitive"/>
        </g>
        <g transform="translate(228.85,95.31)" id="img-9a76e7b6-47">
          <path fill="none" d="M0,-90.31 L0,90.31 " class="primitive"/>
        </g>
        <g transform="translate(270.05,95.31)" id="img-9a76e7b6-48">
          <path fill="none" d="M0,-90.31 L0,90.31 " class="primitive"/>
        </g>
      </g>
      <g class="plotpanel" id="img-9a76e7b6-49">
        <metadata>
          <boundingbox value="20.877777777777766mm 5.0mm 251.1694444444444mm 180.61388888888888mm"/>
          <unitbox value="0.9757251548083299 2528.3103442852425 3.0485496903833402 -2556.620688570485"/>
        </metadata>
        <g stroke-width="0.3" fill="#000000" fill-opacity="0.000" class="geometry" id="img-9a76e7b6-50">
          <g class="color_RGB{N0f8}(0.627,1.0,0.208)" stroke-dasharray="4,1" stroke="#A0FF35" id="img-9a76e7b6-51">
            <g transform="translate(152.25,139.88)" id="img-9a76e7b6-52">
              <path fill="none" d="M-129.37,41.56 L-125.96,41.32 -122.85,40.75 -119.98,39.94 -117.33,39.4 -114.86,38.98 -112.55,38.08 -110.38,39.69 -108.34,39.18 -106.4,38.67 -104.57,38.41 -102.82,37.87 -101.16,37.43 -99.57,37.2 -98.05,36.41 -96.58,38.65 -95.18,38.49 -93.83,37.85 -92.53,37.95 -91.27,37.65 -90.06,37.28 -88.89,36.6 -87.75,34.75 -86.65,36.34 -85.58,34.88 -84.54,35.05 -83.54,33.89 -82.56,34.49 -81.6,33.53 -80.67,33.49 -79.77,31.99 -78.88,33.61 -78.02,32.84 -77.18,33.4 -76.36,32.42 -75.55,31.62 -74.77,32.26 -74,31.68 -73.24,29.93 -72.51,30.07 -71.78,29.73 -71.07,29.35 -70.38,28.06 -69.7,28.11 -69.03,28.61 -68.37,28.22 -67.73,26.45 -67.09,30.11 -66.47,28.95 -65.86,29.15 -65.26,27.78 -64.67,27.66 -64.09,28.03 -63.51,28.17 -62.95,18.6 -62.39,25.03 -61.85,24.96 -61.31,24.54 -60.78,22.44 -60.26,24.06 -59.74,23.42 -59.24,23.26 -58.74,16.64 -58.24,27.15 -57.75,24.83 -57.27,26.9 -56.8,23.97 -56.33,25.8 -55.87,19.34 -55.42,19.53 -54.97,12.05 -54.52,20.06 -54.08,19.06 -53.65,19.48 -53.22,17.32 -52.8,18.71 -52.38,17.35 -51.96,17.76 -51.55,9.52 -51.15,18.74 -50.75,13.8 -50.36,13.08 -49.96,10.65 -49.58,13.65 -49.19,11.55 -48.82,11.61 -48.44,1.4 -48.07,14.66 -47.7,13.71 -47.34,13.75 -46.98,10.84 -46.62,13.17 -46.27,7.4 -45.92,9.52 -45.58,-0.77 -45.24,9.54 -44.9,8.91 -44.56,8.38 -44.23,5.88 -43.9,7.5 -43.57,6.33 -43.25,6.38 -42.93,-5.46 -42.61,12.07 -42.29,9.3 -41.98,11.04 -41.67,7.19 -41.06,7.4 -40.16,9 -39.28,-4.27 -38.43,-3.02 -37.59,-3.23 -36.78,-3.72 -35.98,-19.32 -35.2,-1.07 -34.18,-12.44 -33.44,-14.61 -32.71,-13.11 -31.76,-12.6 -31.07,-19.1 -30.16,-35.79 -29.28,-28.29 -28.42,-48.14 -27.78,-25.53 -26.96,-28.4 -25.95,-35.05 -25.16,-54.34 -24.39,-44.9 -23.64,-70.41 -22.72,-36.25 -21.82,-41.35 -21.12,-53.1 -20.26,-52.18 -19.43,-87.66 -18.61,-53.65 -17.81,-46.38 -17.02,-45.53 -16.11,-48.95 -15.36,-57.47 -14.48,-79.62 -13.63,-56.24 -12.79,-60.78 -11.97,-55.22 -11.18,-88.23 -10.4,-56.61 -9.51,-54.54 -8.64,-60.64 -7.91,-56.14 -7.08,-54.45 -6.15,-57.76 -5.36,-98.24 -4.59,-52.26 -3.72,-53.41 -2.88,-54.14 -2.05,-58.75 -1.25,-61.4 -0.46,-56.63 0.41,-94.12 1.26,-53.33 2.08,-59.37 2.89,-60.24 3.68,-64.81 4.54,-63.83 5.38,-94.5 6.2,-58.44 7,-64.13 7.86,-58.42 8.7,-59.45 9.52,-60.23 10.32,-93.38 11.18,-62.62 12.01,-93.89 12.83,-65.53 13.63,-86.94 14.47,-51.94 15.3,-61.32 16.1,-41.53 16.95,-33.53 17.78,-57.42 18.59,-24.01 19.44,-71.05 20.27,-14.1 21.08,-57.6 21.92,-15.46 22.75,-15.34 23.56,-66.29 24.39,-12.12 25.21,-95.92 26.06,-12.03 26.88,-72.06 27.69,-63.71 28.53,-10.11 29.34,-51.17 30.18,-102.28 31,-15.24 31.84,-34.68 32.66,-60.62 33.5,-36 34.32,-12.74 35.12,-41.27 35.98,-35.85 36.78,-13.54 37.63,-36.64 38.43,-35.9 39.27,-12.45 40.1,-69.62 40.93,-10.46 41.75,-11.51 42.58,-13.8 43.39,-12.01 44.21,-11.25 45.04,-9.65 45.88,-15.45 46.7,-9.89 47.53,-10.79 48.36,-20.97 49.19,-11.96 50.01,-22.65 50.84,-9.11 51.66,-10.15 52.49,3.93 53.33,5.22 54.14,4.05 54.98,-7.46 55.8,5.51 56.62,16.91 57.46,15.06 58.28,18.9 59.1,14.39 59.94,16.63 60.76,19.71 61.58,16.07 62.41,22.81 63.25,25.17 64.07,20.15 64.9,18.67 65.72,27.54 66.54,27.52 67.37,22.27 68.2,26.66 69.03,28.41 69.86,27.51 70.68,25.4 71.5,27.84 72.33,27.05 73.16,24.42 73.98,29.39 74.81,25.67 75.64,30.19 76.46,28.8 77.3,25.46 78.12,31.41 78.94,26.13 79.77,37.56 80.6,24.8 81.42,28.13 82.25,30.8 83.08,30.33 83.9,33.63 84.73,31.12 85.56,29.73 86.39,34.97 87.22,28.7 88.04,29.69 88.87,34.88 89.69,31.11 90.52,30.73 91.35,29.98 92.17,33.73 93,27.39 93.82,30.75 94.65,30.3 95.48,30.04 96.3,27.93 97.14,33.93 97.96,31.52 98.79,33.74 99.61,38.71 100.44,33.61 101.27,33.53 102.09,33.97 102.92,33.96 103.75,31.53 104.57,37.74 105.4,30.73 106.23,30.24 107.05,30.07 107.88,35.66 108.71,34.62 109.53,30.03 110.36,31.31 111.19,36.04 112.01,30.89 112.84,30.8 113.67,34.84 114.49,30.78 115.32,34.5 116.14,28.22 116.97,34.01 117.8,26.68 " class="primitive"/>
            </g>
          </g>
        </g>
        <g stroke-width="0.3" fill="#000000" fill-opacity="0.000" class="geometry" id="img-9a76e7b6-53">
          <g class="color_RGB{N0f8}(1.0,0.278,0.918)" stroke-dasharray="none" stroke="#FF47EA" id="img-9a76e7b6-54">
            <g transform="translate(152.25,144.07)" id="img-9a76e7b6-55">
              <path fill="none" d="M-129.37,37.72 L-125.96,37.38 -122.85,36.92 -119.98,36.29 -117.33,35.66 -114.86,35.47 -112.55,34.61 -110.38,35.86 -108.34,35.45 -106.4,34.92 -104.57,34.59 -102.82,33.97 -101.16,33.75 -99.57,33.45 -98.05,32.52 -96.58,34.6 -95.18,34.41 -93.83,33.82 -92.53,33.92 -91.27,33.68 -90.06,33.24 -88.89,33.65 -87.75,32.33 -86.65,33.33 -85.58,33.64 -84.54,33.36 -83.54,33.03 -82.56,33.02 -81.6,32.44 -80.67,32.54 -79.77,31.81 -78.88,33.7 -78.02,33.16 -77.18,33.27 -76.36,32.67 -75.55,32.81 -74.77,32.77 -74,32.63 -73.24,31.56 -72.51,33.05 -71.78,33.24 -71.07,32.75 -70.38,32.8 -69.7,33.37 -69.03,32.32 -68.37,33.51 -67.73,31.86 -67.09,33.3 -66.47,33.47 -65.86,33.16 -65.26,32.76 -64.67,32.51 -64.09,32.42 -63.51,33.42 -62.95,32.66 -62.39,38.79 -61.85,38.76 -61.31,38.05 -60.78,38.63 -60.26,38.66 -59.74,37.85 -59.24,38.61 -58.74,38.55 -58.24,38.52 -57.75,38.4 -57.27,38.44 -56.8,38.28 -56.33,38.37 -55.87,38.36 -55.42,38.19 -54.97,38.32 -54.52,36.13 -54.08,36.58 -53.65,33.3 -53.22,35.26 -52.8,38.16 -52.38,36.55 -51.96,36.43 -51.55,36.39 -51.15,35.72 -50.75,36.59 -50.36,36.66 -49.96,35.63 -49.58,32.79 -49.19,32 -48.82,32.46 -48.44,29.54 -48.07,31.94 -47.7,31.76 -47.34,31.74 -46.98,30.8 -46.62,31.65 -46.27,31.31 -45.92,31.3 -45.58,31.06 -45.24,32.14 -44.9,32.32 -44.56,32.21 -44.23,31.09 -43.9,31.75 -43.57,28.93 -43.25,29.53 -42.93,26.46 -42.61,28.89 -42.29,28.2 -41.98,28.66 -41.67,27.25 -41.06,30.43 -40.16,27.74 -39.28,27.25 -38.43,28.3 -37.59,29.97 -36.78,28.36 -35.98,26.39 -35.2,28.32 -34.18,28.27 -33.44,27.73 -32.71,25.95 -31.76,26.63 -31.07,25.09 -30.16,20.06 -29.28,22.25 -28.42,16.93 -27.78,23.18 -26.96,23.39 -25.95,20.65 -25.16,14.92 -24.39,15.16 -23.64,9.81 -22.72,15.11 -21.82,9.62 -21.12,11.83 -20.26,9.07 -19.43,6.39 -18.61,8.25 -17.81,6 -17.02,6.01 -16.11,4.64 -15.36,0.05 -14.48,6.19 -13.63,7.15 -12.79,8.27 -11.97,7.31 -11.18,6.81 -10.4,5.36 -9.51,7.24 -8.64,5.19 -7.91,3.12 -7.08,1.93 -6.15,1.11 -5.36,0.46 -4.59,1.3 -3.72,0.52 -2.88,-2.48 -2.05,-3.67 -1.25,-4.92 -0.46,-5.62 0.41,-5.31 1.26,-11.42 2.08,-11.17 2.89,-14.65 3.68,-14.15 4.54,-15.86 5.38,-25.23 6.2,-15.29 7,-18.36 7.86,-17.34 8.7,-23.86 9.52,-22.03 10.32,-26.83 11.18,-19.21 12.01,-23.35 12.83,-26.15 13.63,-23.37 14.47,-26.41 15.3,-30.56 16.1,-30.47 16.95,-33.88 17.78,-30.72 18.59,-29.31 19.44,-20.82 20.27,-30.5 21.08,-34.69 21.92,-36.9 22.75,-41.75 23.56,-35.3 24.39,-34.32 25.21,-41.35 26.06,-41.54 26.88,-43.85 27.69,-42.82 28.53,-42.28 29.34,-39.32 30.18,-48.65 31,-42.68 31.84,-42.13 32.66,-48.12 33.5,-54.83 34.32,-47.53 35.12,-46.23 35.98,-45.7 36.78,-44.89 37.63,-47.84 38.43,-44.78 39.27,-45.99 40.1,-57.79 40.93,-46.8 41.75,-46.22 42.58,-43.28 43.39,-44.1 44.21,-39.47 45.04,-42.45 45.88,-44.01 46.7,-42.36 47.53,-42.84 48.36,-43.89 49.19,-43.56 50.01,-39.2 50.84,-32.72 51.66,-37.03 52.49,-37.95 53.33,-40.11 54.14,-38.13 54.98,-41.68 55.8,-32.73 56.62,-34.18 57.46,-32.71 58.28,-35.61 59.1,-36.84 59.94,-36.23 60.76,-35.09 61.58,-35.99 62.41,-32.79 63.25,-32.33 64.07,-35.67 64.9,-41.99 65.72,-36.56 66.54,-32.27 67.37,-32.49 68.2,-29.88 69.03,-20.63 69.86,-31.43 70.68,-30.81 71.5,-33 72.33,-32.54 73.16,-31.35 73.98,-31.01 74.81,-30.75 75.64,-28.88 76.46,-29.59 77.3,-30.66 78.12,-27.33 78.94,-26.75 79.77,-23 80.6,-24.79 81.42,-29.32 82.25,-21.85 83.08,-22.43 83.9,-24.62 84.73,-23.62 85.56,-27.87 86.39,-22.68 87.22,-26.4 88.04,-23.84 88.87,-26.41 89.69,-24.37 90.52,-29.38 91.35,-25.24 92.17,-24.8 93,-22.46 93.82,-13.66 94.65,-24.24 95.48,-24.13 96.3,-32.36 97.14,-25.9 97.96,-22.22 98.79,-22.41 99.61,-24.19 100.44,-29.2 101.27,-28.8 102.09,-25.48 102.92,-20.57 103.75,-17.38 104.57,-10.12 105.4,-22.59 106.23,-20.59 107.05,-19.74 107.88,-14.7 108.71,-13.93 109.53,-14.37 110.36,-16.86 111.19,-11.48 112.01,-16.98 112.84,-5.95 113.67,-18.88 114.49,-18.02 115.32,-16.76 116.14,-15.82 116.97,-14.45 117.8,-17.26 " class="primitive"/>
            </g>
          </g>
        </g>
        <g stroke-width="0.3" fill="#000000" fill-opacity="0.000" class="geometry" id="img-9a76e7b6-56">
          <g class="color_RGB{N0f8}(0.0,0.549,0.0)" stroke-dasharray="4,1" stroke="#008C00" id="img-9a76e7b6-57">
            <g transform="translate(152.25,126.08)" id="img-9a76e7b6-58">
              <path fill="none" d="M-129.37,56.86 L-125.96,56.8 -122.85,56.44 -119.98,56.51 -117.33,56.4 -114.86,56.41 -112.55,55.81 -110.38,56 -108.34,55.8 -106.4,55.83 -104.57,55.29 -102.82,55.49 -101.16,55.27 -99.57,55.43 -98.05,54.39 -96.58,54.86 -95.18,54.89 -93.83,55.02 -92.53,54.33 -91.27,54.75 -90.06,54.54 -88.89,54.87 -87.75,53.14 -86.65,53.78 -85.58,53.77 -84.54,54.08 -83.54,53.41 -82.56,53.91 -81.6,53.88 -80.67,54.27 -79.77,53.07 -78.88,53.75 -78.02,53.54 -77.18,53.95 -76.36,53.34 -75.55,53.8 -74.77,53.61 -74,53.98 -73.24,52.57 -72.51,53.17 -71.78,53.18 -71.07,53.53 -70.38,52.93 -69.7,53.35 -69.03,53.09 -68.37,53.55 -67.73,52.32 -67.09,52.92 -66.47,52.87 -65.86,53.17 -65.26,52.48 -64.67,52.91 -64.09,53.01 -63.51,53.48 -62.95,51.98 -62.39,52.9 -61.85,52.61 -61.31,52.24 -60.78,52.02 -60.26,52.15 -59.74,51.52 -59.24,51.84 -58.74,51.19 -58.24,53.91 -57.75,53.79 -57.27,53.75 -56.8,53.61 -56.33,53.29 -55.87,53.47 -55.42,53.14 -54.97,51.03 -54.52,52.87 -54.08,52.69 -53.65,52.36 -53.22,52.17 -52.8,52.16 -52.38,52.03 -51.96,51.94 -51.55,49.25 -51.15,51.42 -50.75,51.3 -50.36,51.13 -49.96,50.63 -49.58,50.97 -49.19,50.36 -48.82,50.61 -48.44,47.47 -48.07,49.74 -47.7,49.53 -47.34,49.64 -46.98,49.22 -46.62,49.34 -46.27,48.92 -45.92,48.58 -45.58,45.24 -45.24,48.04 -44.9,47.65 -44.56,47.6 -44.23,47.29 -43.9,47.18 -43.57,46.88 -43.25,47.03 -42.93,42.54 -42.61,45.23 -42.29,44.37 -41.98,45.28 -41.67,44.63 -41.06,45.19 -40.16,42.9 -39.28,41.35 -38.43,42.37 -37.59,39.98 -36.78,39.94 -35.98,34.31 -35.2,39.75 -34.18,41.66 -33.44,46.29 -32.71,45.07 -31.76,44.87 -31.07,43.59 -30.16,35.73 -29.28,41.99 -28.42,33.38 -27.78,41.17 -26.96,39.92 -25.95,39.27 -25.16,29.58 -24.39,37.25 -23.64,26.46 -22.72,36.15 -21.82,35.27 -21.12,33.97 -20.26,32.42 -19.43,20.87 -18.61,31.06 -17.81,30.28 -17.02,27.79 -16.11,27.04 -15.36,25.97 -14.48,11.52 -13.63,22.59 -12.79,19.72 -11.97,12.34 -11.18,3.9 -10.4,10.98 -9.51,17.67 -8.64,15.61 -7.91,15.72 -7.08,14.96 -6.15,13.08 -5.36,3.69 -4.59,16.39 -3.72,14.79 -2.88,12.74 -2.05,12.06 -1.25,9.93 -0.46,8.21 0.41,-7.09 1.26,6.64 2.08,4.12 2.89,2.67 3.68,-3.15 4.54,-2.32 5.38,-9.39 6.2,-2.05 7,-6.02 7.86,1.6 8.7,-5.35 9.52,-6.96 10.32,-15.01 11.18,-9.82 12.01,-15.4 12.83,-14.09 13.63,-20.75 14.47,-16.14 15.3,-16.58 16.1,-2.58 16.95,-11.12 17.78,-14.66 18.59,-17.1 19.44,-23.54 20.27,-14.23 21.08,-24.18 21.92,-27.41 22.75,-30.18 23.56,-33.05 24.39,-24.31 25.21,-40.51 26.06,-30.7 26.88,-35.89 27.69,-35.65 28.53,-36.91 29.34,-42.45 30.18,-49.23 31,-34.87 31.84,-31.87 32.66,-32.68 33.5,-38.74 34.32,-37.34 35.12,-40.27 35.98,-38 36.78,-32.74 37.63,-44.99 38.43,-49.61 39.27,-50.68 40.1,-54.14 40.93,-34.27 41.75,-45.4 42.58,-48.21 43.39,-49.92 44.21,-46.93 45.04,-52.3 45.88,-54.04 46.7,-53.05 47.53,-52.68 48.36,-51.25 49.19,-46.22 50.01,-54.97 50.84,-51.94 51.66,-51.02 52.49,-60.05 53.33,-59.25 54.14,-64.95 54.98,-65.97 55.8,-56.66 56.62,-54.41 57.46,-55.62 58.28,-52.54 59.1,-58.22 59.94,-61.66 60.76,-51.18 61.58,-60.23 62.41,-61.51 63.25,-61.62 64.07,-63.65 64.9,-63.66 65.72,-57.09 66.54,-60.13 67.37,-62.43 68.2,-65.67 69.03,-60.58 69.86,-63.22 70.68,-63.96 71.5,-58.35 72.33,-63.91 73.16,-68.29 73.98,-64.8 74.81,-69.39 75.64,-61.91 76.46,-63.27 77.3,-66.28 78.12,-66.01 78.94,-70.45 79.77,-65.44 80.6,-60.76 81.42,-57.74 82.25,-60.34 83.08,-60.31 83.9,-58.03 84.73,-58.89 85.56,-57.96 86.39,-64.11 87.22,-61.67 88.04,-59.48 88.87,-63.09 89.69,-65.52 90.52,-61.61 91.35,-64.53 92.17,-66.1 93,-64.17 93.82,-63.62 94.65,-67.83 95.48,-68.52 96.3,-65.38 97.14,-70.63 97.96,-73.1 98.79,-68.85 99.61,-71.31 100.44,-66.91 101.27,-72.88 102.09,-72.36 102.92,-71.92 103.75,-75.15 104.57,-76.7 105.4,-63.09 106.23,-66.7 107.05,-64.72 107.88,-68.08 108.71,-68.61 109.53,-66.9 110.36,-64.04 111.19,-69.18 112.01,-69.33 112.84,-68.42 113.67,-71.85 114.49,-73.92 115.32,-74.17 116.14,-75.98 116.97,-76.28 117.8,-76.36 " class="primitive"/>
            </g>
          </g>
        </g>
        <g stroke-width="0.3" fill="#000000" fill-opacity="0.000" class="geometry" id="img-9a76e7b6-59">
          <g class="color_RGB{N0f8}(0.4,0.008,0.235)" stroke-dasharray="none" stroke="#66023C" id="img-9a76e7b6-60">
            <g transform="translate(152.25,105.19)" id="img-9a76e7b6-61">
              <path fill="none" d="M-129.37,75.57 L-125.96,75.6 -122.85,74.89 -119.98,74 -117.33,73.26 -114.86,72.94 -112.55,72.15 -110.38,74.28 -108.34,73.68 -106.4,73.17 -104.57,72.71 -102.82,72.18 -101.16,71.87 -99.57,71.69 -98.05,70.77 -96.58,73.27 -95.18,73.06 -93.83,72.53 -92.53,72.63 -91.27,72.24 -90.06,71.83 -88.89,72.33 -87.75,71.4 -86.65,72.25 -85.58,72.65 -84.54,72.39 -83.54,72.01 -82.56,71.92 -81.6,71.43 -80.67,71.35 -79.77,70.83 -78.88,72.68 -78.02,72.19 -77.18,72.11 -76.36,71.58 -75.55,71.72 -74.77,66.7 -74,66.44 -73.24,64.52 -72.51,67.2 -71.78,67.6 -71.07,66.65 -70.38,66.61 -69.7,67.32 -69.03,67.06 -68.37,66.95 -67.73,61.24 -67.09,65.37 -66.47,64.22 -65.86,65.01 -65.26,63.09 -64.67,63.38 -64.09,63.13 -63.51,62.9 -62.95,54.59 -62.39,59.53 -61.85,58.18 -61.31,58.46 -60.78,58.53 -60.26,56.25 -59.74,55.86 -59.24,57.25 -58.74,51.56 -58.24,57.06 -57.75,56.71 -57.27,55.44 -56.8,54.41 -56.33,55.29 -55.87,54.42 -55.42,53.19 -54.97,46.31 -54.52,54.24 -54.08,50.79 -53.65,51.24 -53.22,51.61 -52.8,52.74 -52.38,49.02 -51.96,51.92 -51.55,44.35 -51.15,52.8 -50.75,51.98 -50.36,45.43 -49.96,46.43 -49.58,48.07 -49.19,46.75 -48.82,47.34 -48.44,36.79 -48.07,48.79 -47.7,46.64 -47.34,48.4 -46.98,43.69 -46.62,47.15 -46.27,41.98 -45.92,46.53 -45.58,37.1 -45.24,47.94 -44.9,45.44 -44.56,42.73 -44.23,43.83 -43.9,41.1 -43.57,36.74 -43.25,40.27 -42.93,29.19 -42.61,37.03 -42.29,39.4 -41.98,35.78 -41.67,36.86 -41.06,39.63 -40.16,41.79 -39.28,36.01 -38.43,34.68 -37.59,29.25 -36.78,33.99 -35.98,-4.37 -35.2,10.89 -34.18,1.01 -33.44,7.17 -32.71,4.34 -31.76,9.1 -31.07,-1.78 -30.16,-19.17 -29.28,-7.98 -28.42,-19.99 -27.78,2.58 -26.96,-2.65 -25.95,-11.26 -25.16,-33.76 -24.39,-15.17 -23.64,-40.26 -22.72,-18.13 -21.82,-22.02 -21.12,-17.05 -20.26,-24.97 -19.43,-51.67 -18.61,-4.96 -17.81,-10.75 -17.02,-19.91 -16.11,-15.51 -15.36,-18.86 -14.48,-50.47 -13.63,-22.21 -12.79,-32.55 -11.97,-23.6 -11.18,-53.36 -10.4,-25.89 -9.51,-24 -8.64,-26.68 -7.91,-22.82 -7.08,-10.08 -6.15,-17.21 -5.36,-48.36 -4.59,-15.41 -3.72,-30.82 -2.88,-14.65 -2.05,-16.55 -1.25,-18.28 -0.46,-20.47 0.41,-66.39 1.26,-16.99 2.08,-36.27 2.89,-34.4 3.68,-26.55 4.54,-27.97 5.38,-62.19 6.2,-22.46 7,-26.37 7.86,-13.22 8.7,-27.93 9.52,-17.79 10.32,-45.2 11.18,-29.54 12.01,-52.7 12.83,-21.41 13.63,-46.74 14.47,-35.87 15.3,-28.76 16.1,-34.18 16.95,-30.31 17.78,-41.46 18.59,-46.64 19.44,-42.22 20.27,-30.14 21.08,-22.84 21.92,-38.94 22.75,-28.6 23.56,-32.19 24.39,-31.93 25.21,-59.98 26.06,-43.74 26.88,-62.87 27.69,-55.41 28.53,-55.43 29.34,-57.92 30.18,-67.05 31,-39.92 31.84,-41.74 32.66,-46.89 33.5,-47.36 34.32,-50.25 35.12,-50.29 35.98,-51.29 36.78,-50.53 37.63,-56.82 38.43,-55.16 39.27,-59.98 40.1,-64.11 40.93,-51.45 41.75,-45.34 42.58,-50.25 43.39,-46.88 44.21,-42.38 45.04,-35.64 45.88,-36.94 46.7,-30.64 47.53,-28.88 48.36,-30.28 49.19,-26.59 50.01,-35.02 50.84,-35.58 51.66,-36.67 52.49,-34.94 53.33,-35.38 54.14,-38.61 54.98,-39.95 55.8,-36.45 56.62,-35.85 57.46,-39.43 58.28,-27.78 59.1,-31.59 59.94,-30.16 60.76,-31.59 61.58,-34.14 62.41,-34.2 63.25,-32.44 64.07,-37.18 64.9,-36.38 65.72,-40.7 66.54,-43.17 67.37,-41.45 68.2,-42.15 69.03,-42.13 69.86,-40.07 70.68,-45.17 71.5,-35.29 72.33,-36.06 73.16,-40.07 73.98,-38.69 74.81,-40.74 75.64,-39.84 76.46,-44.02 77.3,-45.59 78.12,-43.51 78.94,-42.42 79.77,-39.78 80.6,-45.03 81.42,-37.33 82.25,-38.24 83.08,-38.36 83.9,-40.71 84.73,-40.65 85.56,-40.81 86.39,-43.32 87.22,-41.41 88.04,-40.15 88.87,-40.57 89.69,-38.18 90.52,-42.16 91.35,-42.02 92.17,-43.28 93,-44.91 93.82,-43.24 94.65,-44.19 95.48,-41.58 96.3,-40.94 97.14,-40.67 97.96,-39.05 98.79,-38.86 99.61,-38.98 100.44,-42.35 101.27,-42.86 102.09,-41.5 102.92,-45.42 103.75,-45.26 104.57,-40.92 105.4,-42.35 106.23,-41.47 107.05,-41.22 107.88,-37.76 108.71,-40.26 109.53,-41.87 110.36,-41.37 111.19,-43.57 112.01,-42.76 112.84,-40.52 113.67,-39.39 114.49,-38.25 115.32,-41.27 116.14,-40.71 116.97,-43.43 117.8,-42.9 " class="primitive"/>
            </g>
          </g>
        </g>
        <g stroke-width="0.3" fill="#000000" fill-opacity="0.000" class="geometry" id="img-9a76e7b6-62">
          <g class="color_RGB{N0f8}(0.0,0.443,0.773)" stroke-dasharray="4,1" stroke="#0071C5" id="img-9a76e7b6-63">
            <g transform="translate(152.25,106.52)" id="img-9a76e7b6-64">
              <path fill="none" d="M-129.37,76.45 L-125.96,76.26 -122.85,76.06 -119.98,75.87 -117.33,75.68 -114.86,75.29 -112.55,74.95 -110.38,75.16 -108.34,74.86 -106.4,74.56 -104.57,74.3 -102.82,73.96 -101.16,73.64 -99.57,73.29 -98.05,72.62 -96.58,73.81 -95.18,73.58 -93.83,73.4 -92.53,73.15 -91.27,72.82 -90.06,72.6 -88.89,72.48 -87.75,71.7 -86.65,72.52 -85.58,72.5 -84.54,72.22 -83.54,72.06 -82.56,71.98 -81.6,71.89 -80.67,71.62 -79.77,70.74 -78.88,71.93 -78.02,71.71 -77.18,71.58 -76.36,71.33 -75.55,71.21 -74.77,71.01 -74,70.86 -73.24,69.86 -72.51,71.64 -71.78,71.31 -71.07,72.54 -70.38,71.98 -69.7,72.06 -69.03,71.7 -68.37,70.25 -67.73,67.82 -67.09,70.08 -66.47,69.43 -65.86,69.26 -65.26,68.2 -64.67,68.73 -64.09,67.95 -63.51,67.76 -62.95,62.52 -62.39,66.22 -61.85,65.44 -61.31,65.38 -60.78,63.7 -60.26,64.1 -59.74,63.31 -59.24,62.9 -58.74,58.48 -58.24,62.93 -57.75,61.96 -57.27,61.91 -56.8,59.88 -56.33,60.57 -55.87,59.4 -55.42,59.23 -54.97,53.14 -54.52,61.14 -54.08,59.57 -53.65,59.7 -53.22,56.42 -52.8,58.81 -52.38,57.31 -51.96,57.82 -51.55,48.68 -51.15,56.73 -50.75,55.63 -50.36,56.31 -49.96,53.16 -49.58,54.4 -49.19,53.06 -48.82,53.02 -48.44,45.07 -48.07,53 -47.7,51.06 -47.34,52 -46.98,47.89 -46.62,50.53 -46.27,48.37 -45.92,48.61 -45.58,34.55 -45.24,47.92 -44.9,45.67 -44.56,46.29 -44.23,41.88 -43.9,45.44 -43.57,43.63 -43.25,44.21 -42.93,29.37 -42.61,42.26 -42.29,40.51 -41.98,41.41 -41.67,35.49 -41.06,36.2 -40.16,37.74 -39.28,30.74 -38.43,33.93 -37.59,27.66 -36.78,26.98 -35.98,4.15 -35.2,24.15 -34.18,19.67 -33.44,27.2 -32.71,28.45 -31.76,23.97 -31.07,19.33 -30.16,2.26 -29.28,14.97 -28.42,-4.38 -27.78,13.44 -26.96,10.14 -25.95,-1.48 -25.16,-19.74 -24.39,-8.63 -23.64,-25.9 -22.72,-3.96 -21.82,-9.88 -21.12,-14.01 -20.26,-9.3 -19.43,-46 -18.61,11.09 -17.81,7.15 -17.02,8.57 -16.11,3.48 -15.36,-1 -14.48,-24.06 -13.63,-5.62 -12.79,-14.47 -11.97,-11.46 -11.18,-37.47 -10.4,-15.47 -9.51,-17.1 -8.64,-17.42 -7.91,-15.71 -7.08,-14.21 -6.15,-19.78 -5.36,-48.78 -4.59,-19.55 -3.72,-22.79 -2.88,-27.24 -2.05,-32.7 -1.25,-31.35 -0.46,-21.62 0.41,-52.49 1.26,-20.32 2.08,-24.88 2.89,-21.05 3.68,-37.85 4.54,-30.22 5.38,-64.91 6.2,-9.72 7,-16.8 7.86,-11.95 8.7,-17.55 9.52,-16.56 10.32,-43.85 11.18,-15.17 12.01,-21.68 12.83,-20.28 13.63,-28.03 14.47,-16.27 15.3,-23.21 16.1,-22.49 16.95,-19.33 17.78,-27.09 18.59,-28.37 19.44,-31.82 20.27,-23.39 21.08,-23.12 21.92,-25.35 22.75,-26.06 23.56,-30.29 24.39,-30.5 25.21,-42.83 26.06,-32.88 26.88,-34.48 27.69,-31.48 28.53,-34.36 29.34,-32.3 30.18,-44.06 31,-34.36 31.84,-35.41 32.66,-32.17 33.5,-39.29 34.32,-37.69 35.12,-43.2 35.98,-35.67 36.78,-32.34 37.63,-40.44 38.43,-38.51 39.27,-37.21 40.1,-39.76 40.93,-33.56 41.75,-34.06 42.58,-36.67 43.39,-36.82 44.21,-35.19 45.04,-38.47 45.88,-39.8 46.7,-39.79 47.53,-41.52 48.36,-46.39 49.19,-43.96 50.01,-49.27 50.84,-39.6 51.66,-41.8 52.49,-43.51 53.33,-45 54.14,-47.54 54.98,-50.79 55.8,-46.25 56.62,-45.68 57.46,-46.59 58.28,-46.25 59.1,-43.09 59.94,-40.27 60.76,-43.42 61.58,-47.14 62.41,-43.95 63.25,-48.41 64.07,-51.27 64.9,-49.65 65.72,-41.76 66.54,-42.88 67.37,-49.36 68.2,-49.02 69.03,-42.15 69.86,-46.93 70.68,-51.91 71.5,-42.48 72.33,-46.78 73.16,-51.05 73.98,-46.12 74.81,-52.66 75.64,-47.57 76.46,-51.93 77.3,-59.58 78.12,-59.87 78.94,-62.71 79.77,-57.57 80.6,-54.95 81.42,-58.48 82.25,-59.82 83.08,-61.98 83.9,-57.45 84.73,-59.03 85.56,-62.82 86.39,-63.18 87.22,-58.49 88.04,-57.44 88.87,-62.85 89.69,-63.05 90.52,-60.79 91.35,-62.92 92.17,-65.66 93,-62.18 93.82,-55.2 94.65,-62.71 95.48,-64.63 96.3,-63.3 97.14,-64.29 97.96,-68.38 98.79,-64.6 99.61,-65.03 100.44,-58.13 101.27,-64.9 102.09,-66.4 102.92,-64.43 103.75,-67.8 104.57,-63.01 105.4,-64.82 106.23,-66.81 107.05,-65.26 107.88,-67.5 108.71,-65.53 109.53,-65.24 110.36,-65.63 111.19,-68.55 112.01,-64.92 112.84,-62.47 113.67,-65.65 114.49,-68.67 115.32,-65.8 116.14,-68.13 116.97,-67.16 117.8,-67.3 " class="primitive"/>
            </g>
          </g>
        </g>
        <g stroke-width="0.3" fill="#000000" fill-opacity="0.000" class="geometry" id="img-9a76e7b6-65">
          <g class="color_RGB{N0f8}(0.0,0.71,0.729)" stroke-dasharray="none" stroke="#00B5BA" id="img-9a76e7b6-66">
            <g transform="translate(152.25,158.67)" id="img-9a76e7b6-67">
              <path fill="none" d="M-129.37,22.77 L-125.96,22.46 -122.85,22.12 -119.98,21.4 -117.33,20.62 -114.86,20.71 -112.55,19.49 -110.38,20.93 -108.34,20.43 -106.4,19.98 -104.57,19.8 -102.82,19.02 -101.16,18.94 -99.57,18.73 -98.05,17.76 -96.58,19.89 -95.18,19.78 -93.83,19.18 -92.53,19.25 -91.27,18.83 -90.06,18.59 -88.89,18.94 -87.75,17.61 -86.65,18.73 -85.58,19.04 -84.54,18.71 -83.54,18.37 -82.56,18.4 -81.6,17.73 -80.67,17.93 -79.77,23.89 -78.88,23.85 -78.02,23.87 -77.18,23.74 -76.36,23.63 -75.55,23.51 -74.77,23.46 -74,23.33 -73.24,23.19 -72.51,23.2 -71.78,23.08 -71.07,23.08 -70.38,22.96 -69.7,22.91 -69.03,22.73 -68.37,22.51 -67.73,22.5 -67.09,22.57 -66.47,22.4 -65.86,22.28 -65.26,22.11 -64.67,22.12 -64.09,21.87 -63.51,21.88 -62.95,21.41 -62.39,21.68 -61.85,21.69 -61.31,21.57 -60.78,21.26 -60.26,21.51 -59.74,21.14 -59.24,21.03 -58.74,23.05 -58.24,23.12 -57.75,22.99 -57.27,22.96 -56.8,22.8 -56.33,22.77 -55.87,22.61 -55.42,22.54 -54.97,22.57 -54.52,22.52 -54.08,22.32 -53.65,22.28 -53.22,22.16 -52.8,22.15 -52.38,21.9 -51.96,21.81 -51.55,21.7 -51.15,21.7 -50.75,21.63 -50.36,21.59 -49.96,21.39 -49.58,21.27 -49.19,21.28 -48.82,21.11 -48.44,20.82 -48.07,21.02 -47.7,20.74 -47.34,20.91 -46.98,20.51 -46.62,20.63 -46.27,20.56 -45.92,20.24 -45.58,22.12 -45.24,22.19 -44.9,22.14 -44.56,22.02 -44.23,21.98 -43.9,21.93 -43.57,21.75 -43.25,21.84 -42.93,21.61 -42.61,21.57 -42.29,21.52 -41.98,21.49 -41.67,21.24 -41.06,21.16 -40.16,20.94 -39.28,20.61 -38.43,20.34 -37.59,20.02 -36.78,19.88 -35.98,21.24 -35.2,21.45 -34.18,20.84 -33.44,20.04 -32.71,20.13 -31.76,21.52 -31.07,21.35 -30.16,19.15 -29.28,20.51 -28.42,20.38 -27.78,20.46 -26.96,20.51 -25.95,19.85 -25.16,19.17 -24.39,20 -23.64,18.43 -22.72,19.49 -21.82,13.57 -21.12,14.17 -20.26,14.48 -19.43,10.59 -18.61,14.18 -17.81,15.25 -17.02,14.37 -16.11,14.84 -15.36,13.58 -14.48,13.74 -13.63,14.85 -12.79,15.21 -11.97,14.33 -11.18,12.91 -10.4,14.43 -9.51,14.15 -8.64,13.08 -7.91,7.27 -7.08,6.72 -6.15,9.06 -5.36,0.77 -4.59,6.77 -3.72,6.99 -2.88,8.71 -2.05,7.69 -1.25,7.94 -0.46,6.99 0.41,3.81 1.26,5.82 2.08,3.75 2.89,0.52 3.68,-2.15 4.54,1.46 5.38,-7.8 6.2,0.58 7,-0.07 7.86,-0.59 8.7,-1.33 9.52,-0.55 10.32,-13.82 11.18,-3.65 12.01,-10.15 12.83,-5.76 13.63,-11.18 14.47,-5.77 15.3,-7.07 16.1,-6.77 16.95,-9.44 17.78,-10.65 18.59,-10.12 19.44,-17.87 20.27,-11.46 21.08,-13.9 21.92,-12.91 22.75,-16.15 23.56,-18.31 24.39,-19.04 25.21,-29.16 26.06,-19.79 26.88,-23.55 27.69,-24.49 28.53,-21.58 29.34,-26.17 30.18,-35.03 31,-26.81 31.84,-26.98 32.66,-28.37 33.5,-32.59 34.32,-32.47 35.12,-41.44 35.98,-39.33 36.78,-30.56 37.63,-45.5 38.43,-45.57 39.27,-33.64 40.1,-39.47 40.93,-33.37 41.75,-36.23 42.58,-35.15 43.39,-34.41 44.21,-34.43 45.04,-35.55 45.88,-38.86 46.7,-34.22 47.53,-36.99 48.36,-42.18 49.19,-40.05 50.01,-50.34 50.84,-35.87 51.66,-39.22 52.49,-42.81 53.33,-39 54.14,-48.2 54.98,-46.24 55.8,-45.65 56.62,-36.37 57.46,-36.22 58.28,-34.31 59.1,-34.15 59.94,-31.77 60.76,-32.51 61.58,-32.53 62.41,-30.35 63.25,-29.73 64.07,-32.13 64.9,-37.67 65.72,-29.73 66.54,-28.8 67.37,-29.17 68.2,-29.67 69.03,-23.62 69.86,-26.81 70.68,-32.56 71.5,-25.43 72.33,-26.59 73.16,-29.92 73.98,-24.22 74.81,-27.9 75.64,-22.7 76.46,-23.2 77.3,-28.05 78.12,-22.69 78.94,-26.7 79.77,-19.18 80.6,-24.42 81.42,-20.78 82.25,-18.95 83.08,-19.51 83.9,-18.55 84.73,-16.29 85.56,-19.08 86.39,-17.91 87.22,-18.02 88.04,-16.58 88.87,-17.03 89.69,-16.92 90.52,-16.57 91.35,-16.89 92.17,-17.77 93,-19.81 93.82,-13.83 94.65,-16.38 95.48,-15.9 96.3,-16.5 97.14,-15.69 97.96,-18.7 98.79,-15.31 99.61,-12.38 100.44,-14.54 101.27,-15.65 102.09,-14.21 102.92,-14.06 103.75,-15.3 104.57,-11.34 105.4,-13.81 106.23,-12.31 107.05,-13.05 107.88,-10.67 108.71,-11.85 109.53,-9.98 110.36,-10.3 111.19,-10.08 112.01,-9.48 112.84,-6.78 113.67,-9.42 114.49,-8.6 115.32,-8.89 116.14,-9.35 116.97,-8.44 117.8,-8.86 " class="primitive"/>
            </g>
          </g>
        </g>
        <g stroke-width="0.3" fill="#000000" fill-opacity="0.000" class="geometry" id="img-9a76e7b6-68">
          <g class="color_RGB{N0f8}(0.706,0.388,0.0)" stroke-dasharray="4,1" stroke="#B46300" id="img-9a76e7b6-69">
            <g transform="translate(152.25,128.89)" id="img-9a76e7b6-70">
              <path fill="none" d="M-129.37,54.72 L-125.96,54.72 -122.85,54.71 -119.98,54.71 -117.33,54.7 -114.86,54.71 -112.55,54.7 -110.38,54.7 -108.34,54.69 -106.4,54.68 -104.57,54.68 -102.82,54.69 -101.16,54.68 -99.57,54.68 -98.05,54.64 -96.58,54.63 -95.18,54.62 -93.83,54.65 -92.53,54.64 -91.27,54.63 -90.06,54.58 -88.89,54.56 -87.75,54.54 -86.65,54.59 -85.58,54.58 -84.54,54.57 -83.54,54.48 -82.56,54.46 -81.6,54.44 -80.67,54.51 -79.77,54.49 -78.88,54.48 -78.02,54.35 -77.18,54.32 -76.36,54.29 -75.55,54.39 -74.77,54.37 -74,54.35 -73.24,54.17 -72.51,54.13 -71.78,54.11 -71.07,54.27 -70.38,54.23 -69.7,54.21 -69.03,53.94 -68.37,53.9 -67.73,53.85 -67.09,54.09 -66.47,54.06 -65.86,54.03 -65.26,53.68 -64.67,53.63 -64.09,53.57 -63.51,53.87 -62.95,53.82 -62.39,53.81 -61.85,53.35 -61.31,53.31 -60.78,53.24 -60.26,53.65 -59.74,53.58 -59.24,53.56 -58.74,52.98 -58.24,52.94 -57.75,52.9 -57.27,53.37 -56.8,53.29 -56.33,53.28 -55.87,52.54 -55.42,52.5 -54.97,52.4 -54.52,53.1 -54.08,53.03 -53.65,52.95 -53.22,52.09 -52.8,52.04 -52.38,51.87 -51.96,52.71 -51.55,52.58 -51.15,52.57 -50.75,51.52 -50.36,51.45 -49.96,51.24 -49.58,52.29 -49.19,52.22 -48.82,52.11 -48.44,50.83 -48.07,50.91 -47.7,50.73 -47.34,51.9 -46.98,51.79 -46.62,51.7 -46.27,50.34 -45.92,50.28 -45.58,50.04 -45.24,51.38 -44.9,51.29 -44.56,51.15 -44.23,49.55 -43.9,49.4 -43.57,49.34 -43.25,50.85 -42.93,50.64 -42.61,50.74 -42.29,48.91 -41.98,48.7 -41.67,48.62 -41.06,50.22 -40.16,47.92 -39.28,49.59 -38.43,47.02 -37.59,48.98 -36.78,45.93 -35.98,48.14 -35.2,44.99 -34.18,47.48 -33.44,44.2 -32.71,46.63 -31.76,46.08 -31.07,42.09 -30.16,44.98 -29.28,40.6 -28.42,39.47 -27.78,43.21 -26.96,38.47 -25.95,37.2 -25.16,40.87 -24.39,35.73 -23.64,34.36 -22.72,38.53 -21.82,37.26 -21.12,30.95 -20.26,30.43 -19.43,28.48 -18.61,33.71 -17.81,32.78 -17.02,31.75 -16.11,30.44 -15.36,22.77 -14.48,20.23 -13.63,21.52 -12.79,19.18 -11.97,17.93 -11.18,15.91 -10.4,14.66 -9.51,18.8 -8.64,18.41 -7.91,18.58 -7.08,16.87 -6.15,7.53 -5.36,5.12 -4.59,11.57 -3.72,9.44 -2.88,4.45 -2.05,7.27 -1.25,3.08 -0.46,-2.12 0.41,9.6 1.26,-3.71 2.08,1.17 2.89,-9.22 3.68,-5 4.54,-8.6 5.38,-14.47 6.2,-9.31 7,-13.5 7.86,-15.53 8.7,-19.18 9.52,-6.16 10.32,-12.52 11.18,-9.41 12.01,-14.25 12.83,-17.01 13.63,-22.9 14.47,-18.28 15.3,-27.46 16.1,-25.17 16.95,-19.03 17.78,-22.31 18.59,-27.09 19.44,-26.39 20.27,-34.6 21.08,-32.99 21.92,-32.6 22.75,-36.03 23.56,-33.33 24.39,-36.87 25.21,-40.83 26.06,-35.81 26.88,-34.9 27.69,-39.39 28.53,-43.26 29.34,-44.7 30.18,-39.97 31,-39.92 31.84,-40.8 32.66,-40.9 33.5,-43.48 34.32,-42.69 35.12,-48.15 35.98,-46.17 36.78,-44.45 37.63,-31.96 38.43,-50.11 39.27,-51.05 40.1,-48.72 40.93,-49.39 41.75,-45.82 42.58,-50.23 43.39,-47.94 44.21,-46.41 45.04,-46.99 45.88,-51.29 46.7,-52.84 47.53,-54.09 48.36,-52.12 49.19,-49.85 50.01,-54.48 50.84,-50.87 51.66,-53.31 52.49,-54.11 53.33,-52.62 54.14,-54.76 54.98,-57.07 55.8,-55.76 56.62,-55.98 57.46,-55.69 58.28,-57.38 59.1,-58.67 59.94,-58 60.76,-55.59 61.58,-57.41 62.41,-57.24 63.25,-58.58 64.07,-60.64 64.9,-62.95 65.72,-62.5 66.54,-63.79 67.37,-60.12 68.2,-60.56 69.03,-61.12 69.86,-63.18 70.68,-68.98 71.5,-62.84 72.33,-62.62 73.16,-66.09 73.98,-66.48 74.81,-69.48 75.64,-63.87 76.46,-66.95 77.3,-66.26 78.12,-65.64 78.94,-69.86 79.77,-67.98 80.6,-69.11 81.42,-63.08 82.25,-63.35 83.08,-62.75 83.9,-64.83 84.73,-59.05 85.56,-64.62 86.39,-65.6 87.22,-67.54 88.04,-61.02 88.87,-63.71 89.69,-64.57 90.52,-65.86 91.35,-65.33 92.17,-67.58 93,-69.29 93.82,-63.57 94.65,-68.87 95.48,-66.35 96.3,-63.84 97.14,-70.57 97.96,-69.59 98.79,-68.21 99.61,-69.98 100.44,-64 101.27,-65.46 102.09,-71.08 102.92,-71.96 103.75,-66.45 104.57,-72.11 105.4,-71.33 106.23,-63.2 107.05,-60.06 107.88,-56.45 108.71,-69.66 109.53,-67.5 110.36,-68.43 111.19,-69.61 112.01,-70.3 112.84,-57.47 113.67,-71.19 114.49,-71.93 115.32,-60.25 116.14,-62.38 116.97,-73.15 117.8,-76.65 " class="primitive"/>
            </g>
          </g>
        </g>
      </g>
    </g>
  </g>
  <g class="guide ylabels" font-size="2.82" font-family="'PT Sans Caption','Helvetica Neue','Helvetica',sans-serif" fill="#6C606B" id="img-9a76e7b6-71">
    <g transform="translate(19.88,183.61)" id="img-9a76e7b6-72">
      <g class="primitive">
        <text text-anchor="end" dy="0.35em">0</text>
      </g>
    </g>
    <g transform="translate(19.88,148.29)" id="img-9a76e7b6-73">
      <g class="primitive">
        <text text-anchor="end" dy="0.35em">500</text>
      </g>
    </g>
    <g transform="translate(19.88,112.97)" id="img-9a76e7b6-74">
      <g class="primitive">
        <text text-anchor="end" dy="0.35em">1000</text>
      </g>
    </g>
    <g transform="translate(19.88,77.65)" id="img-9a76e7b6-75">
      <g class="primitive">
        <text text-anchor="end" dy="0.35em">1500</text>
      </g>
    </g>
    <g transform="translate(19.88,42.32)" id="img-9a76e7b6-76">
      <g class="primitive">
        <text text-anchor="end" dy="0.35em">2000</text>
      </g>
    </g>
    <g transform="translate(19.88,7)" id="img-9a76e7b6-77">
      <g class="primitive">
        <text text-anchor="end" dy="0.35em">2500</text>
      </g>
    </g>
  </g>
  <g font-size="3.88" font-family="'PT Sans','Helvetica Neue','Helvetica',sans-serif" fill="#564A55" stroke="#000000" stroke-opacity="0.000" id="img-9a76e7b6-78">
    <g transform="translate(8.41,93.31)" id="img-9a76e7b6-79">
      <g class="primitive">
        <text text-anchor="middle" dy="0.35em" transform="rotate(-90,0, 2)">GFLOPS</text>
      </g>
    </g>
  </g>
</g>
<defs>
  <clipPath id="img-9a76e7b6-30">
    <path d="M20.88,5 L272.05,5 272.05,185.61 20.88,185.61 " />
  </clipPath>
</defs>
</svg>
